<?xml version="1.0" encoding="UTF-8"?>
<svg id="Layer_1" data-name="Layer 1" xmlns="http://www.w3.org/2000/svg" viewBox="0 0 700 294.7">
  <defs>
    <style>
      .cls-1 {
        fill: #d90429;
      }

      .cls-2 {
        fill: #fbf5e5;
      }
    </style>
  </defs>
  <g>
    <path class="cls-2" d="M352.76,38.35v.63c-8.05,1.38-13.96,6.92-18.86,19.49-4.28,10.94-24.14,67.91-24.14,67.91h-2.77s-27.41-62.5-30.68-70.55c-3.27-8.05-6.79-16.85-14.71-16.85v-.63h39.61v.63c-6.04,0-6.92,2.39-3.52,11.57,3.27,8.68,18.74,44.77,20.75,49.42,5.78-16.35,12.2-34.71,12.95-36.97,4.02-10.69,3.02-24.02-5.41-24.02v-.63h26.78Z"/>
    <g>
      <g>
        <path class="cls-2" d="M362.75,38.35h32.13c-18.87,0-32.13,18.42-32.13,27.64v-27.64Z"/>
        <path class="cls-2" d="M409.2,38.35V118.2c0,6.74,4.91,7.97,10.84,8.18h-38.03c5.93-.2,10.84-1.43,10.84-8.18V38.35h16.36Z"/>
        <path class="cls-2" d="M438.41,38.35v27.64c0-9.21-12.12-27.64-30.99-27.64h30.99Z"/>
      </g>
      <path class="cls-2" d="M342.24,49.58v.07c-.07,.07-.11,.11-.15,.18l.15-.26Z"/>
      <path class="cls-2" d="M342.24,49.58v.07c-.07,.07-.11,.11-.15,.18l.15-.26Z"/>
    </g>
  </g>
  <g>
    <polygon class="cls-1" points="206.13 251.79 43.43 251.79 43.43 85.44 237.28 85.44 237.28 89.32 47.32 89.32 47.32 247.91 206.13 247.91 206.13 251.79"/>
    <polygon class="cls-1" points="656.57 251.79 493.87 251.79 493.87 247.91 652.68 247.91 652.68 89.32 462.72 89.32 462.72 85.44 656.57 85.44 656.57 251.79"/>
  </g>
  <g>
    <path class="cls-2" d="M107.86,152.61h3.31l-14.31,65.3h-.63l-14.4-65.3h3.94l12.43,56.53,8.68-39.63,.98-16.9Z"/>
    <path class="cls-2" d="M129.06,215.23v-62.62h4.02v62.62h-4.02Z"/>
    <path class="cls-2" d="M177.72,193.13c-.54,14.76-2.95,23.26-11.09,23.26-8.86,0-13.87-12.17-13.87-32.65s4.92-32.47,13.68-32.65c8.14-.09,10.56,8.32,11.18,22.9h-.54c-.63-14.13-2.86-22.36-10.46-22.36-6.08,0-9.39,11.9-9.39,32.11s3.31,32.12,9.39,32.12c7.78,0,10.02-8.23,10.55-22.72h.54Z"/>
    <path class="cls-2" d="M218.06,155.83l-11-2.69v62.08h-4.02v-62.08l-11.01,2.69v-3.22h26.03v3.22Z"/>
    <path class="cls-2" d="M228.8,183.74c0-21.47,7.42-32.65,20.04-32.65s20.04,11.18,20.04,32.65-7.43,32.65-20.04,32.65-20.04-11.18-20.04-32.65Zm35.6,0c0-21.11-4.65-32.11-15.57-32.11s-15.56,11-15.56,32.11,4.65,32.12,15.56,32.12,15.57-11,15.57-32.12Z"/>
    <path class="cls-2" d="M310.46,215.23h-4.02c-2.68-14.94-.36-39.54-11.99-43.39-.63-.18-1.25-.36-1.88-.63v44.01h-4.02v-62.62h9.66c6.71,0,10.11,3.58,10.11,9.84,0,6.71-4.74,10.74-11.9,9.75,11.45,5.82,10.47,28.72,14.04,43.03Zm-17.89-62.08v17.45c7.96,3.4,11.36-.9,11.36-8.14,0-5.99-2.23-9.3-6.62-9.3h-4.74Z"/>
    <path class="cls-2" d="M329.25,215.23v-62.62h4.02v62.62h-4.02Z"/>
    <path class="cls-2" d="M373.89,215.23l-4.29-16.73h-13.24l-1.88,16.73h-3.31l11.36-43.74-4.83-18.87h3.85l16.28,62.62h-3.94Zm-17.44-17.26h12.97l-6.53-25.23-6.44,25.23Z"/>
    <path class="cls-2" d="M451.88,155.83l-11-2.69v62.08h-4.02v-62.08l-11.01,2.69v-3.22h26.03v3.22Z"/>
    <path class="cls-2" d="M474.33,215.95c7.52,0,11-5.81,11-12.79,0-18.34-19.14-25.58-19.14-40.34,0-8.23,6-11.72,12.7-11.72l.09,.54c-5.46,0-9.22,3.4-9.22,9.93,0,12.43,19.41,22.27,19.41,39.72,0,9.66-5.91,15.21-14.67,15.21l-.18-.54Z"/>
    <path class="cls-2" d="M526.13,154.94l-16.28-1.7c1.7,1.7,2.15,4.11,2.15,6.53v20.57h13.24v2.33l-13.24-1.61v33.28l14.14-1.43v2.33h-18.16v-62.62h18.16v2.32Z"/>
    <path class="cls-2" d="M562.27,152.61h3.31v62.62l-.72-1.79-20.13-51.17v36.14l2.59,16.82h-3.31v-64.23l20.84,53.41v-35.34l-2.59-16.46Z"/>
    <path class="cls-2" d="M618.18,183.74c0,18.07-2.86,32.65-15.57,32.65s-17.35-14.58-17.35-32.65,4.65-32.65,17.35-32.65c10.29,0,13.06,9.66,15.57,23.08h-.72c-2.15-12.52-5.01-22.54-14.85-22.54s-12.79,14.31-12.79,32.11,2.59,32.12,12.79,32.12,12.17-8.14,12.17-31.58l-1.16-.09-16.28,2.06v-2.51h20.84Z"/>
  </g>
  <g>
    <path class="cls-2" d="M234.59,256.25v-12.77h4.58c1.07,0,1.99,.17,2.75,.51,.77,.34,1.36,.83,1.77,1.47,.41,.64,.62,1.42,.62,2.33s-.21,1.65-.62,2.29c-.41,.64-1,1.13-1.77,1.48-.77,.35-1.68,.52-2.75,.52h-4.07l.42-.44v4.62h-.93Zm.93-4.56l-.42-.44h4.07c1.37,0,2.42-.3,3.13-.91,.71-.61,1.07-1.46,1.07-2.55s-.35-1.96-1.07-2.57c-.71-.6-1.76-.9-3.13-.9h-4.07l.42-.46v7.83Zm7.94,4.56l-3.33-4.63h1.06l3.32,4.63h-1.06Z"/>
    <path class="cls-2" d="M273.29,255.41h7.88v.84h-8.82v-12.77h8.54v.84h-7.61v11.09Zm-.11-6.06h6.91v.82h-6.91v-.82Z"/>
    <path class="cls-2" d="M307.07,256.25l5.88-12.77h.93l5.87,12.77h-1l-5.55-12.19h.4l-5.53,12.19h-1.01Zm2.15-3.59l.31-.78h7.65l.31,.78h-8.27Z"/>
    <path class="cls-2" d="M346.7,256.25v-12.77h.93v11.93h7.35v.84h-8.29Z"/>
    <path class="cls-2" d="M383.27,256.25v-11.93h-4.6v-.84h10.13v.84h-4.6v11.93h-.93Z"/>
    <path class="cls-2" d="M420.98,256.34c-.95,0-1.83-.16-2.64-.48-.81-.32-1.51-.78-2.12-1.37-.6-.59-1.07-1.28-1.39-2.06-.33-.78-.49-1.64-.49-2.56s.17-1.78,.49-2.57c.33-.78,.79-1.47,1.39-2.06,.61-.59,1.31-1.05,2.12-1.37,.81-.32,1.69-.49,2.64-.49s1.82,.16,2.63,.49c.81,.32,1.51,.78,2.11,1.36,.6,.58,1.06,1.27,1.4,2.05,.33,.78,.5,1.65,.5,2.58s-.17,1.79-.5,2.58c-.34,.78-.8,1.47-1.4,2.05-.59,.58-1.3,1.04-2.11,1.36s-1.69,.48-2.63,.48Zm0-.86c.81,0,1.57-.14,2.26-.42,.69-.28,1.3-.68,1.81-1.19,.51-.51,.91-1.11,1.19-1.79,.29-.68,.43-1.42,.43-2.23s-.14-1.56-.43-2.24c-.29-.67-.68-1.27-1.19-1.78-.51-.51-1.11-.9-1.81-1.19-.69-.28-1.45-.42-2.26-.42s-1.57,.14-2.26,.42c-.69,.28-1.3,.67-1.82,1.19s-.92,1.1-1.21,1.78c-.29,.68-.43,1.42-.43,2.24s.14,1.54,.43,2.23,.69,1.28,1.21,1.79c.52,.51,1.12,.9,1.82,1.19,.69,.28,1.45,.42,2.26,.42Z"/>
    <path class="cls-2" d="M455.48,256.25v-12.77h4.58c1.07,0,1.99,.17,2.75,.51,.77,.34,1.36,.83,1.77,1.47,.41,.64,.62,1.42,.62,2.33s-.21,1.65-.62,2.29c-.41,.64-1,1.13-1.77,1.48-.77,.35-1.68,.52-2.75,.52h-4.07l.42-.44v4.62h-.93Zm.93-4.56l-.42-.44h4.07c1.37,0,2.42-.3,3.13-.91s1.07-1.46,1.07-2.55-.35-1.96-1.07-2.57c-.71-.6-1.76-.9-3.13-.9h-4.07l.42-.46v7.83Zm7.94,4.56l-3.33-4.63h1.06l3.32,4.63h-1.06Z"/>
  </g>
</svg>