<?xml version="1.0" encoding="UTF-8"?>
<svg id="Layer_1" data-name="Layer 1" xmlns="http://www.w3.org/2000/svg" viewBox="0 0 700 500">
  <defs>
    <style>
      .cls-1 {
        fill: #d90429;
      }

      .cls-2 {
        fill: #fbf5e5;
      }
    </style>
  </defs>
  <rect class="cls-1" x="598.3" y="100.8" width="2.69" height="323.98"/>
  <g>
    <g>
      <path class="cls-2" d="M87.14,116.68h6.26l-27.04,123.36h-1.18l-27.21-123.36h7.44l23.49,106.8,16.4-74.86,1.85-31.94Z"/>
      <path class="cls-2" d="M118.74,234.98V116.68h7.6v118.29h-7.6Z"/>
      <path class="cls-2" d="M202.22,193.23c-1.02,27.88-5.58,43.94-20.95,43.94-16.73,0-26.2-22.98-26.2-61.69s9.3-61.35,25.85-61.68c15.38-.17,19.94,15.72,21.13,43.26h-1.02c-1.18-26.7-5.4-42.25-19.77-42.25-11.49,0-17.75,22.48-17.75,60.67s6.25,60.67,17.75,60.67c14.7,0,18.92-15.55,19.94-42.93h1.02Z"/>
      <path class="cls-2" d="M269.98,122.76l-20.78-5.08v117.29h-7.6V117.69l-20.79,5.08v-6.08h49.18v6.08Z"/>
      <path class="cls-2" d="M281.81,175.48c0-40.55,14.02-61.68,37.85-61.68s37.86,21.13,37.86,61.68-14.03,61.69-37.86,61.69-37.85-21.13-37.85-61.69Zm67.26,0c0-39.88-8.79-60.67-29.41-60.67s-29.4,20.78-29.4,60.67,8.79,60.67,29.4,60.67,29.41-20.78,29.41-60.67Z"/>
      <path class="cls-2" d="M427.65,234.98h-7.6c-5.07-28.22-.67-74.7-22.65-81.96-1.18-.34-2.37-.68-3.55-1.18v83.14h-7.6V116.68h18.25c12.68,0,19.1,6.76,19.1,18.59,0,12.68-8.95,20.28-22.48,18.42,21.63,10.99,19.78,54.25,26.53,81.29Zm-33.8-117.29v32.96c15.04,6.42,21.46-1.69,21.46-15.38,0-11.32-4.22-17.58-12.5-17.58h-8.96Z"/>
      <path class="cls-2" d="M454.69,234.98V116.68h7.6v118.29h-7.6Z"/>
      <path class="cls-2" d="M530.57,234.98l-8.11-31.6h-25.01l-3.55,31.6h-6.26l21.46-82.64-9.12-35.65h7.27l30.75,118.29h-7.43Zm-32.95-32.62h24.5l-12.33-47.66-12.17,47.66Z"/>
    </g>
    <g>
      <path class="cls-2" d="M257.64,297.2l-20.78-5.08v117.29h-7.6v-117.29l-20.79,5.08v-6.08h49.18v6.08Z"/>
      <path class="cls-2" d="M291.61,410.77c14.2,0,20.78-10.98,20.78-24.17,0-34.65-36.16-48.33-36.16-76.21,0-15.55,11.33-22.14,24-22.14l.18,1.02c-10.31,0-17.41,6.42-17.41,18.76,0,23.49,36.68,42.08,36.68,75.03,0,18.25-11.16,28.73-27.72,28.73l-.34-1.02Z"/>
      <path class="cls-2" d="M381.01,295.51l-30.76-3.21c3.21,3.21,4.05,7.77,4.05,12.33v38.87h25.01v4.4l-25.01-3.05v62.87l26.71-2.71v4.4h-34.31v-118.29h34.31v4.39Z"/>
      <path class="cls-2" d="M440.84,291.12h6.25v118.29l-1.35-3.38-38.03-96.66v68.28l4.9,31.77h-6.25v-121.34l39.38,100.89v-66.76l-4.9-31.09Z"/>
      <path class="cls-2" d="M538,349.92c0,34.14-5.41,61.69-29.41,61.69s-32.78-27.55-32.78-61.69,8.79-61.68,32.78-61.68c19.43,0,24.68,18.25,29.41,43.6h-1.36c-4.05-23.65-9.46-42.58-28.05-42.58s-24.17,27.04-24.17,60.67,4.9,60.67,24.17,60.67,22.98-15.38,22.98-59.66l-2.2-.17-30.75,3.89v-4.73h39.38Z"/>
    </g>
  </g>
  <g>
    <path class="cls-2" d="M661.94,402.3h-15.44v-5.54c0-1.29,.21-2.4,.62-3.33,.41-.93,1-1.64,1.77-2.14,.77-.5,1.71-.75,2.81-.75s1.99,.25,2.77,.75c.77,.5,1.37,1.21,1.79,2.14,.42,.93,.63,2.04,.63,3.33v4.92l-.53-.51h5.58v1.13Zm-5.51-1.13l-.53,.51v-4.92c0-1.66-.37-2.92-1.1-3.78-.74-.86-1.76-1.29-3.09-1.29s-2.37,.43-3.1,1.29c-.73,.86-1.09,2.12-1.09,3.78v4.92l-.55-.51h9.46Zm5.51-9.6l-5.6,4.02v-1.28l5.6-4.01v1.28Z"/>
    <path class="cls-2" d="M660.92,355.51v-9.53h1.02v10.66h-15.44v-10.32h1.02v9.19h13.41Zm-7.32,.13v-8.36h.99v8.36h-.99Z"/>
    <path class="cls-2" d="M661.94,314.68l-15.44-7.11v-1.12l15.44-7.1v1.21l-14.73,6.7v-.48l14.73,6.68v1.22Zm-4.34-2.6l-.95-.38v-9.24l.95-.38v10Z"/>
    <path class="cls-2" d="M661.94,266.77h-15.44v-1.13h14.42v-8.89h1.02v10.02Z"/>
    <path class="cls-2" d="M661.94,222.57h-14.42v5.56h-1.02v-12.24h1.02v5.56h14.42v1.12Z"/>
    <path class="cls-2" d="M662.04,177c0,1.15-.19,2.21-.58,3.19-.39,.98-.94,1.83-1.65,2.56-.71,.73-1.55,1.29-2.49,1.69-.95,.4-1.98,.6-3.1,.6s-2.15-.2-3.1-.6-1.78-.96-2.49-1.69c-.72-.73-1.27-1.58-1.65-2.56-.39-.98-.59-2.04-.59-3.19s.2-2.21,.59-3.18c.39-.98,.94-1.83,1.64-2.55,.71-.72,1.53-1.28,2.48-1.69,.95-.4,1.99-.61,3.12-.61s2.17,.21,3.12,.61c.95,.41,1.77,.97,2.48,1.69,.71,.72,1.25,1.57,1.64,2.55,.39,.98,.58,2.04,.58,3.18Zm-1.04,0c0-.98-.17-1.9-.51-2.73-.34-.84-.82-1.57-1.43-2.18-.62-.62-1.34-1.1-2.16-1.44-.82-.35-1.72-.52-2.69-.52s-1.89,.18-2.71,.52c-.81,.35-1.53,.82-2.15,1.44-.62,.62-1.09,1.34-1.43,2.18-.34,.83-.51,1.75-.51,2.73s.17,1.9,.51,2.74c.34,.84,.81,1.57,1.43,2.2,.62,.62,1.33,1.11,2.15,1.46,.82,.35,1.72,.52,2.71,.52s1.87-.17,2.69-.52c.82-.35,1.55-.83,2.16-1.46,.61-.62,1.09-1.36,1.43-2.2,.33-.83,.51-1.75,.51-2.74Z"/>
    <path class="cls-2" d="M661.94,135.29h-15.44v-5.54c0-1.29,.21-2.4,.62-3.33,.41-.93,1-1.64,1.77-2.14,.77-.5,1.71-.75,2.81-.75s1.99,.25,2.77,.75c.77,.5,1.37,1.21,1.79,2.14,.42,.93,.63,2.04,.63,3.33v4.92l-.53-.51h5.58v1.13Zm-5.51-1.13l-.53,.51v-4.92c0-1.66-.37-2.92-1.1-3.78-.74-.86-1.76-1.29-3.09-1.29s-2.37,.43-3.1,1.29c-.73,.86-1.09,2.12-1.09,3.78v4.92l-.55-.51h9.46Zm5.51-9.6l-5.6,4.02v-1.28l5.6-4.01v1.28Z"/>
  </g>
</svg>