<?xml version="1.0" encoding="UTF-8"?>
<svg id="Layer_1" data-name="Layer 1" xmlns="http://www.w3.org/2000/svg" viewBox="0 0 700 500">
  <defs>
    <style>
      .cls-1 {
        fill: #d90429;
      }

      .cls-2 {
        fill: #fbf5e5;
      }
    </style>
  </defs>
  <path class="cls-2" d="M348.56,111.2v3.57h1.96c4.12,0,7.43,3.42,9.83,6.89,5.86,8.46,5.71,26.27-.37,42.43-1.5,4.51-13.7,39.42-25.42,72.58-8.26-19.23-35.25-82.4-41.4-98.68-3.95-10.7-4.92-16.6-3.15-19.16,1.14-1.64,3.9-2.4,8.68-2.4h1.96v-5.24h-95.39v5.24h1.96c15.15,0,22.1,17.12,28.97,34.02,6.77,16.66,63.64,146.3,64.21,147.61l.51,1.17h17.06l.46-1.31c.42-1.19,41.66-119.38,50.49-141.97,9.55-24.48,21.26-38.34,37.96-41.21l1.63-.28v-3.26h-59.95Z"/>
  <g>
    <path class="cls-2" d="M168.26,446.95h2.75c1.54,0,2.58,.06,3.13,.19,.82,.19,1.49,.59,2.01,1.21,.52,.62,.78,1.38,.78,2.28,0,.76-.18,1.42-.53,1.99-.36,.57-.86,1-1.53,1.29-.66,.29-1.24,.44-1.72,.44l3.97,6.44h-1.7l-3.97-6.44h-1.8v6.44h-1.38v-13.84Zm1.38,1.35v4.7l2.38,.02c.92,0,1.61-.09,2.05-.26,.44-.17,.79-.45,1.04-.84,.25-.39,.37-.82,.37-1.3s-.13-.88-.38-1.26c-.25-.38-.58-.65-.98-.82s-1.08-.25-2.04-.25h-2.44Z"/>
    <path class="cls-2" d="M201.28,446.95h7.93v1.36h-6.55v4.33h4v1.34h-4v5.43h6.5v1.37h-7.88v-13.84Z"/>
    <path class="cls-2" d="M239.02,446.92l6.45,13.84h-1.47l-2.17-4.56h-5.98l-2.16,4.56h-1.55l6.55-13.84h.34Zm-.17,2.93l-2.39,5.02h4.74l-2.35-5.02Z"/>
    <path class="cls-2" d="M269.02,446.92h1.39v12.51h5.32v1.33h-6.71v-13.84Z"/>
    <path class="cls-2" d="M296.21,448.3v-1.34h7.6v1.34h-3.1v12.5h-1.41v-12.5h-3.09Z"/>
    <path class="cls-2" d="M333.45,446.71c2.09,0,3.84,.7,5.25,2.1,1.41,1.4,2.12,3.12,2.12,5.17s-.7,3.68-2.11,4.99c-1.41,1.3-3.12,1.95-5.14,1.95s-3.79-.7-5.2-2.11c-1.41-1.4-2.12-2.99-2.12-4.76,0-1.32,.32-2.56,.96-3.69,.64-1.14,1.52-2.03,2.63-2.68,1.12-.64,2.32-.96,3.61-.96Zm.06,1.36c-1.02,0-1.99,.27-2.91,.8-.92,.53-1.63,1.25-2.14,2.16-.51,.91-.76,1.91-.76,3.02,0,1.64,.57,2.97,1.7,4,1.13,1.02,2.51,1.53,4.11,1.53,1.07,0,2.06-.26,2.98-.78,.92-.52,1.63-1.23,2.14-2.13,.51-.9,.76-1.79,.76-2.68,0-1.09-.26-2.09-.76-2.98-.51-.89-1.23-1.6-2.16-2.13-.93-.53-1.91-.8-2.96-.8Z"/>
    <path class="cls-2" d="M365.06,446.95h2.75c1.54,0,2.58,.06,3.13,.19,.82,.19,1.49,.59,2.01,1.21,.52,.62,.78,1.38,.78,2.28,0,.76-.18,1.42-.53,1.99-.36,.57-.86,1-1.53,1.29-.66,.29-1.24,.44-1.72,.44l3.97,6.44h-1.7l-3.97-6.44h-1.8v6.44h-1.38v-13.84Zm1.38,1.35v4.7l2.38,.02c.92,0,1.61-.09,2.05-.26s.79-.45,1.04-.84c.25-.39,.37-.82,.37-1.3s-.13-.88-.38-1.26c-.25-.38-.58-.65-.98-.82s-1.08-.25-2.04-.25h-2.44Z"/>
  </g>
  <polygon class="cls-1" points="141.19 454.6 79.44 454.6 79.44 46.08 533.1 46.08 533.1 341.98 529.61 341.98 529.61 49.56 82.93 49.56 82.93 451.12 141.19 451.12 141.19 454.6"/>
  <g>
    <path class="cls-2" d="M181.41,365.03h3.01l-13,59.28h-.57l-13.08-59.28h3.58l11.29,51.32,7.88-35.97,.89-15.35Z"/>
    <path class="cls-2" d="M200.66,421.87v-56.84h3.65v56.84h-3.65Z"/>
    <path class="cls-2" d="M244.85,401.81c-.49,13.4-2.68,21.12-10.07,21.12-8.04,0-12.59-11.04-12.59-29.64s4.47-29.48,12.43-29.64c7.39-.08,9.59,7.55,10.16,20.79h-.49c-.57-12.83-2.6-20.3-9.5-20.3-5.53,0-8.53,10.8-8.53,29.15s3,29.16,8.53,29.16c7.07,0,9.1-7.47,9.58-20.63h.49Z"/>
    <path class="cls-2" d="M281.49,367.95l-9.99-2.44v56.36h-3.65v-56.36l-9.99,2.44v-2.92h23.64v2.92Z"/>
    <path class="cls-2" d="M291.24,393.28c0-19.49,6.74-29.64,18.19-29.64s18.2,10.15,18.2,29.64-6.74,29.64-18.2,29.64-18.19-10.15-18.19-29.64Zm32.33,0c0-19.16-4.23-29.15-14.14-29.15s-14.13,9.99-14.13,29.15,4.22,29.16,14.13,29.16,14.14-9.99,14.14-29.16Z"/>
    <path class="cls-2" d="M365.4,421.87h-3.65c-2.44-13.56-.32-35.89-10.89-39.39-.57-.16-1.14-.33-1.71-.57v39.95h-3.65v-56.84h8.77c6.09,0,9.18,3.25,9.18,8.93,0,6.09-4.3,9.75-10.81,8.85,10.4,5.28,9.51,26.07,12.75,39.06Zm-16.25-56.36v15.84c7.23,3.08,10.32-.81,10.32-7.39,0-5.44-2.03-8.45-6.01-8.45h-4.31Z"/>
    <path class="cls-2" d="M382.46,421.87v-56.84h3.65v56.84h-3.65Z"/>
    <path class="cls-2" d="M422.99,421.87l-3.9-15.19h-12.02l-1.71,15.19h-3.01l10.32-39.71-4.38-17.13h3.49l14.78,56.84h-3.57Zm-15.84-15.67h11.78l-5.93-22.9-5.85,22.9Z"/>
    <path class="cls-2" d="M493.81,367.95l-9.99-2.44v56.36h-3.65v-56.36l-9.99,2.44v-2.92h23.64v2.92Z"/>
    <path class="cls-2" d="M514.2,422.52c6.82,0,9.99-5.28,9.99-11.61,0-16.65-17.38-23.23-17.38-36.62,0-7.47,5.44-10.64,11.54-10.64l.08,.49c-4.96,0-8.37,3.08-8.37,9.02,0,11.29,17.63,20.22,17.63,36.06,0,8.77-5.36,13.81-13.33,13.81l-.16-.49Z"/>
    <path class="cls-2" d="M561.24,367.14l-14.79-1.54c1.54,1.54,1.95,3.73,1.95,5.93v18.68h12.02v2.11l-12.02-1.46v30.21l12.84-1.3v2.11h-16.49v-56.84h16.49v2.11Z"/>
    <path class="cls-2" d="M594.06,365.03h3v56.84l-.65-1.62-18.28-46.45v32.81l2.36,15.27h-3v-58.31l18.93,48.48v-32.08l-2.36-14.94Z"/>
    <path class="cls-2" d="M644.83,393.28c0,16.41-2.6,29.64-14.14,29.64s-15.76-13.24-15.76-29.64,4.22-29.64,15.76-29.64c9.34,0,11.86,8.77,14.14,20.95h-.65c-1.95-11.37-4.55-20.46-13.48-20.46s-11.62,13-11.62,29.15,2.36,29.16,11.62,29.16,11.05-7.39,11.05-28.67l-1.06-.08-14.78,1.87v-2.27h18.93Z"/>
  </g>
</svg>